<mxfile host="app.diagrams.net" agent="Mozilla/5.0 (Windows NT 10.0; Win64; x64) AppleWebKit/537.36 (KHTML, like Gecko) Chrome/132.0.0.0 Safari/537.36" version="26.0.13">
  <diagram name="Page-1" id="SBVT8DD8Xot-n1D4VR2F">
    <mxGraphModel grid="1" page="1" gridSize="10" guides="1" tooltips="1" connect="1" arrows="1" fold="1" pageScale="1" pageWidth="850" pageHeight="1100" math="0" shadow="0">
      <root>
        <mxCell id="0" />
        <mxCell id="1" parent="0" />
        <mxCell id="stT4DG-q1289ncHPhN-0-3" style="edgeStyle=orthogonalEdgeStyle;rounded=0;orthogonalLoop=1;jettySize=auto;html=1;exitX=1;exitY=0.5;exitDx=0;exitDy=0;entryX=0;entryY=0.5;entryDx=0;entryDy=0;" edge="1" parent="1" source="-8u4ou603Z0xN7fmYHnL-1" target="-8u4ou603Z0xN7fmYHnL-4">
          <mxGeometry relative="1" as="geometry" />
        </mxCell>
        <mxCell id="stT4DG-q1289ncHPhN-0-4" style="edgeStyle=orthogonalEdgeStyle;rounded=0;orthogonalLoop=1;jettySize=auto;html=1;exitX=1;exitY=0.5;exitDx=0;exitDy=0;entryX=0;entryY=0.5;entryDx=0;entryDy=0;" edge="1" parent="1" source="-8u4ou603Z0xN7fmYHnL-1" target="-8u4ou603Z0xN7fmYHnL-5">
          <mxGeometry relative="1" as="geometry" />
        </mxCell>
        <mxCell id="stT4DG-q1289ncHPhN-0-6" style="edgeStyle=orthogonalEdgeStyle;rounded=0;orthogonalLoop=1;jettySize=auto;html=1;exitX=1;exitY=0.5;exitDx=0;exitDy=0;entryX=0;entryY=0.5;entryDx=0;entryDy=0;" edge="1" parent="1" source="-8u4ou603Z0xN7fmYHnL-1" target="-8u4ou603Z0xN7fmYHnL-6">
          <mxGeometry relative="1" as="geometry" />
        </mxCell>
        <mxCell id="-8u4ou603Z0xN7fmYHnL-1" value="&lt;u&gt;&lt;span style=&quot;background-color: transparent; color: light-dark(rgb(0, 0, 0), rgb(255, 255, 255));&quot;&gt;Order UI&lt;/span&gt;&lt;br&gt;&lt;/u&gt;&lt;span style=&quot;background-color: transparent; color: light-dark(rgb(0, 0, 0), rgb(255, 255, 255));&quot;&gt;- Ask Chatbot about delivery status &amp;amp; info&lt;/span&gt;" style="rounded=0;whiteSpace=wrap;html=1;align=center;" vertex="1" parent="1">
          <mxGeometry x="250" y="172" width="120" height="60" as="geometry" />
        </mxCell>
        <mxCell id="-8u4ou603Z0xN7fmYHnL-8" style="edgeStyle=orthogonalEdgeStyle;rounded=0;orthogonalLoop=1;jettySize=auto;html=1;exitX=0;exitY=0.5;exitDx=0;exitDy=0;entryX=0;entryY=0.5;entryDx=0;entryDy=0;" edge="1" parent="1" source="-8u4ou603Z0xN7fmYHnL-2" target="-8u4ou603Z0xN7fmYHnL-2">
          <mxGeometry relative="1" as="geometry" />
        </mxCell>
        <mxCell id="-8u4ou603Z0xN7fmYHnL-2" value="Customer Support (RAG)" style="rounded=0;whiteSpace=wrap;html=1;fillColor=#fff2cc;strokeColor=#d6b656;" vertex="1" parent="1">
          <mxGeometry x="250" y="403" width="120" height="60" as="geometry" />
        </mxCell>
        <mxCell id="-8u4ou603Z0xN7fmYHnL-3" value="" style="endArrow=classic;startArrow=classic;html=1;rounded=0;exitX=0.5;exitY=0;exitDx=0;exitDy=0;" edge="1" parent="1" source="-8u4ou603Z0xN7fmYHnL-2">
          <mxGeometry width="50" height="50" relative="1" as="geometry">
            <mxPoint x="260" y="282" as="sourcePoint" />
            <mxPoint x="310" y="232" as="targetPoint" />
          </mxGeometry>
        </mxCell>
        <mxCell id="-8u4ou603Z0xN7fmYHnL-4" value="Order" style="rounded=0;whiteSpace=wrap;html=1;fillColor=#fff2cc;strokeColor=#d6b656;" vertex="1" parent="1">
          <mxGeometry x="470" y="100" width="120" height="60" as="geometry" />
        </mxCell>
        <mxCell id="-8u4ou603Z0xN7fmYHnL-5" value="Driver" style="rounded=0;whiteSpace=wrap;html=1;fillColor=#fff2cc;strokeColor=#d6b656;" vertex="1" parent="1">
          <mxGeometry x="470" y="200" width="120" height="60" as="geometry" />
        </mxCell>
        <mxCell id="-8u4ou603Z0xN7fmYHnL-6" value="Tracking" style="rounded=0;whiteSpace=wrap;html=1;fillColor=#fff2cc;strokeColor=#d6b656;" vertex="1" parent="1">
          <mxGeometry x="470" y="300" width="120" height="60" as="geometry" />
        </mxCell>
        <mxCell id="-8u4ou603Z0xN7fmYHnL-17" value="&lt;span style=&quot;background-color: transparent; color: light-dark(rgb(0, 0, 0), rgb(255, 255, 255));&quot;&gt;1. Provide CS (RAG) with prompt&lt;/span&gt;" style="text;html=1;align=left;verticalAlign=middle;resizable=0;points=[];autosize=1;strokeColor=none;fillColor=none;" vertex="1" parent="1">
          <mxGeometry x="120" y="295" width="200" height="30" as="geometry" />
        </mxCell>
        <mxCell id="-8u4ou603Z0xN7fmYHnL-19" value="3. Check user ID" style="text;html=1;align=left;verticalAlign=middle;resizable=0;points=[];autosize=1;strokeColor=none;fillColor=none;" vertex="1" parent="1">
          <mxGeometry x="600" y="100" width="110" height="30" as="geometry" />
        </mxCell>
        <mxCell id="-8u4ou603Z0xN7fmYHnL-26" value="4. Return order record/s" style="text;html=1;align=left;verticalAlign=middle;resizable=0;points=[];autosize=1;strokeColor=none;fillColor=none;" vertex="1" parent="1">
          <mxGeometry x="600" y="130" width="150" height="30" as="geometry" />
        </mxCell>
        <mxCell id="-8u4ou603Z0xN7fmYHnL-27" value="5. Check order ID" style="text;html=1;align=left;verticalAlign=middle;resizable=0;points=[];autosize=1;strokeColor=none;fillColor=none;" vertex="1" parent="1">
          <mxGeometry x="600" y="200" width="120" height="30" as="geometry" />
        </mxCell>
        <mxCell id="-8u4ou603Z0xN7fmYHnL-28" value="6. Return driver info" style="text;html=1;align=left;verticalAlign=middle;resizable=0;points=[];autosize=1;strokeColor=none;fillColor=none;" vertex="1" parent="1">
          <mxGeometry x="600" y="230" width="130" height="30" as="geometry" />
        </mxCell>
        <mxCell id="-8u4ou603Z0xN7fmYHnL-29" value="7. Check order ID" style="text;html=1;align=left;verticalAlign=middle;resizable=0;points=[];autosize=1;strokeColor=none;fillColor=none;" vertex="1" parent="1">
          <mxGeometry x="605" y="305" width="120" height="30" as="geometry" />
        </mxCell>
        <mxCell id="-8u4ou603Z0xN7fmYHnL-30" value="8. Return tracking log" style="text;html=1;align=left;verticalAlign=middle;resizable=0;points=[];autosize=1;strokeColor=none;fillColor=none;" vertex="1" parent="1">
          <mxGeometry x="605" y="330" width="140" height="30" as="geometry" />
        </mxCell>
        <mxCell id="-8u4ou603Z0xN7fmYHnL-31" value="&lt;span style=&quot;background-color: transparent; color: light-dark(rgb(0, 0, 0), rgb(255, 255, 255));&quot;&gt;2. Return list of APIs to call&lt;/span&gt;" style="text;html=1;align=left;verticalAlign=middle;resizable=0;points=[];autosize=1;strokeColor=none;fillColor=none;" vertex="1" parent="1">
          <mxGeometry x="120" y="320" width="170" height="30" as="geometry" />
        </mxCell>
      </root>
    </mxGraphModel>
  </diagram>
</mxfile>
